<?xml version="1.0" encoding="utf-8"?>
<!-- Generator: Adobe Illustrator 20.0.0, SVG Export Plug-In . SVG Version: 6.00 Build 0)  -->
<svg version="1.1" id="Layer_1" xmlns="http://www.w3.org/2000/svg" xmlns:xlink="http://www.w3.org/1999/xlink" x="0px" y="0px"
	 viewBox="15.6 37.6 80 50" style="enable-background:new 15.6 37.6 80 50;" xml:space="preserve">
<style type="text/css">
	.st0{fill:#CCCCCC;}
</style>
<g>
	<path class="st0" d="M85.6,52.8L85.6,52.8c0,0-5.1-7-13.2-6.6v0c-8.3-11.4-14.7-1.4-14.7-1.4l0,0c-0.6-0.4-1.4-0.6-2.2-0.6
		c-0.8,0-1.5,0.2-2.2,0.6l0,0c0,0-6.4-10-14.7,1.4v0c-8.1-0.4-13.2,6.6-13.2,6.6c-4.9,3-8.2,8.4-8.2,14.5c0,9.4,7.6,17,17,17
		c8.5,0,15.6-6.3,16.8-14.5c0,0,1.3,1.7,4.1,1.7c2.8,0,4.6-1.7,4.6-1.7c1.2,8.2,8.3,14.4,16.8,14.4c9.4,0,17-7.6,17-17
		C93.8,61.2,90.5,55.8,85.6,52.8z M33.9,79.5c-6.4,0-11.6-5.2-11.6-11.6c0-6.4,5.2-11.6,11.6-11.6s11.6,5.2,11.6,11.6
		C45.6,74.3,40.3,79.5,33.9,79.5z M76.8,79.5c-6.4,0-11.7-5.2-11.7-11.6c0-6.4,5.2-11.6,11.7-11.6c6.4,0,11.6,5.2,11.6,11.6
		C88.4,74.3,83.2,79.5,76.8,79.5z"/>
	<path class="st0" d="M26.9,66.9c-0.4-1-0.6-2-0.7-3c-1.2,2.1-1.5,4.7-0.6,7.1c1.6,4.3,6.5,6.5,10.8,4.9c0.9-0.3,1.7-0.8,2.4-1.4
		C33.8,74.9,28.8,72,26.9,66.9z"/>
	<path class="st0" d="M70.7,66.9c-0.4-1-0.6-2-0.7-3c-1.2,2.1-1.5,4.7-0.6,7.1c1.6,4.3,6.5,6.5,10.8,4.9c0.9-0.3,1.7-0.8,2.4-1.4
		C77.6,74.9,72.6,72,70.7,66.9z"/>
</g>
</svg>
