<?xml version="1.0" encoding="UTF-8" standalone="no"?>
<svg width="55px" height="15px" viewBox="0 0 55 15" version="1.1" xmlns="http://www.w3.org/2000/svg" xmlns:xlink="http://www.w3.org/1999/xlink">
    <!-- Generator: Sketch 46.1 (44463) - http://www.bohemiancoding.com/sketch -->
    <title>Them 2</title>
    <desc>Created with Sketch.</desc>
    <defs>
        <polygon id="path-1" points="7.19475545 5.11218974e-15 0 0 0 14.3895349 7.19475545 14.3895349 14.3895109 14.3895349 14.3895109 0 7.19475545 0"></polygon>
    </defs>
    <g id="Page-1" stroke="none" stroke-width="1" fill="none" fill-rule="evenodd">
        <g id="05-copy-2" transform="translate(-1388.000000, -993.000000)">
            <g id="Them-2" transform="translate(1388.000000, 993.000000)">
                <g>
                    <g id="Group-3">
                        <mask id="mask-2" fill="white">
                            <use xlink:href="#path-1"></use>
                        </mask>
                        <g id="Clip-2"></g>
                        <path d="M-2.39825581e-05,7.19476744 C-2.39825581e-05,11.1683176 3.22119331,14.3895349 7.19474346,14.3895349 C11.1684135,14.3895349 14.3895109,11.1683176 14.3895109,7.19476744 C14.3895109,3.2212173 11.1684135,0 7.19474346,0 C3.22119331,0 -2.39825581e-05,3.2212173 -2.39825581e-05,7.19476744" id="Fill-1" fill="#000000" mask="url(#mask-2)"></path>
                    </g>
                    <path d="M20.1453488,7.19476744 C20.1453488,11.1683176 23.3665661,14.3895349 27.3401163,14.3895349 C31.3136664,14.3895349 34.5348837,11.1683176 34.5348837,7.19476744 C34.5348837,3.2212173 31.3136664,0 27.3401163,0 C23.3665661,0 20.1453488,3.2212173 20.1453488,7.19476744" id="Fill-4" fill="#000000"></path>
                    <path d="M40.6104651,7.19476744 C40.6104651,11.1683176 43.8315625,14.3895349 47.8052326,14.3895349 C51.7787827,14.3895349 55,11.1683176 55,7.19476744 C55,3.2212173 51.7787827,0 47.8052326,0 C43.8315625,0 40.6104651,3.2212173 40.6104651,7.19476744" id="Fill-6" fill="#000000"></path>
                </g>
            </g>
        </g>
    </g>
</svg>