<?xml version="1.0" encoding="UTF-8" standalone="no"?>
<svg width="43px" height="52px" viewBox="0 0 43 52" version="1.1" xmlns="http://www.w3.org/2000/svg" xmlns:xlink="http://www.w3.org/1999/xlink">
    <!-- Generator: Sketch 46.1 (44463) - http://www.bohemiancoding.com/sketch -->
    <title>Thong bao 2</title>
    <desc>Created with Sketch.</desc>
    <defs></defs>
    <g id="Page-1" stroke="none" stroke-width="1" fill="none" fill-rule="evenodd">
        <g id="05-copy-2" transform="translate(-1061.000000, -959.000000)" fill="#000000">
            <g id="Thong-bao-2" transform="translate(1061.000000, 959.000000)">
                <path d="M35.7119456,43.5090876 L35.3076496,43.5090876 L21.2263909,43.5090876 L7.14523155,43.5090876 L6.74083619,43.5090876 L6.65604522,20.8084394 C6.65604522,12.4937612 12.9129041,6.23432079 21.2263909,6.22905859 C29.539977,6.23432079 35.7968359,12.4937612 35.7968359,20.8084394 L35.7119456,43.5090876 Z M41.1758997,43.5090876 L38.1958048,43.5090876 L38.1651252,20.7507537 C38.1651252,11.5665212 31.4990059,4.49600657 22.4303433,3.91845494 L22.4303433,1.16940056 C22.4303433,0.393374512 21.8298564,0.00387218727 21.2263909,0 C20.6230247,0.00387218727 20.0225378,0.393374512 20.0225378,1.16940056 L20.0225378,3.91845494 C10.9538752,4.49600657 4.28765663,11.5665212 4.28765663,20.7507537 L4.25707628,43.5090876 L1.2768821,43.5090876 C-0.282715793,43.5090876 -0.282715793,45.9351619 1.2768821,45.9351619 L14.461084,45.9351619 C14.8650822,49.3401052 17.7071684,51.9953335 21.2263909,52 C24.7457127,51.9953335 27.5877989,49.3401052 27.9917971,45.9351619 L41.1758997,45.9351619 C42.7354976,45.9351619 42.7354976,43.5090876 41.1758997,43.5090876 L41.1758997,43.5090876 Z"></path>
            </g>
        </g>
    </g>
</svg>