<?xml version="1.0" encoding="UTF-8" standalone="no"?>
<svg width="46px" height="46px" viewBox="0 0 46 46" version="1.1" xmlns="http://www.w3.org/2000/svg" xmlns:xlink="http://www.w3.org/1999/xlink">
    <!-- Generator: Sketch 46.1 (44463) - http://www.bohemiancoding.com/sketch -->
    <title>Tim kiem 2</title>
    <desc>Created with Sketch.</desc>
    <defs>
        <polygon id="path-1" points="0 46 0 0 46 0 46 46"></polygon>
    </defs>
    <g id="Page-1" stroke="none" stroke-width="1" fill="none" fill-rule="evenodd">
        <g id="05-copy-2" transform="translate(-986.000000, -970.000000)">
            <g id="Tim-kiem-2" transform="translate(986.000000, 970.000000)">
                <g>
                    <mask id="mask-2" fill="white">
                        <use xlink:href="#path-1"></use>
                    </mask>
                    <g id="Clip-2"></g>
                    <path d="M33.9766725,18.1326629 C33.9766725,20.2698606 33.5578367,22.3434997 32.7315759,24.2961059 C31.9336795,26.1816769 30.7919334,27.8748338 29.3378536,29.3283151 C27.8839911,30.7817964 26.1904989,31.9232432 24.3043248,32.7208218 C22.3509892,33.5466486 20.2769149,33.9654833 18.1397001,33.9654833 C16.0027027,33.9654833 13.9287371,33.5466486 11.9755102,32.7207131 C10.0896621,31.9232432 8.39627857,30.7816878 6.94209007,29.3279892 C5.48801024,27.8739646 4.34637283,26.1809164 3.54869377,24.29578 C2.72243301,22.3429565 2.30359716,20.2693173 2.30359716,18.1326629 C2.30359716,15.996443 2.72243301,13.9231298 3.54869377,11.9706322 C4.34659018,10.0852785 5.4882276,8.39244761 6.94219874,6.93918359 C8.39649592,5.48548498 10.0898795,4.34425552 11.9756189,3.54700287 C13.9286285,2.72106739 16.0024854,2.30234135 18.1397001,2.30234135 C20.2770236,2.30234135 22.3512065,2.72106739 24.3047595,3.54711152 C26.1909336,4.34469011 27.8844258,5.48602822 29.3381796,6.93950953 C30.7921508,8.3928822 31.9338969,10.0858218 32.7316846,11.9709581 C33.5578367,13.9232384 33.9766725,15.9963343 33.9766725,18.1326629 M45.647565,43.9464606 L31.7940313,30.096233 L32.4803179,29.208586 C34.9654034,25.9953471 36.2788569,22.1656444 36.2788569,18.133532 C36.2788569,15.6850603 35.7993801,13.31036 34.8537935,11.0755971 C33.9403749,8.91656137 32.6323551,6.97710144 30.9660318,5.31121498 C29.2997085,3.64543717 27.3597399,2.33776031 25.2000293,1.42458118 C22.9645717,0.47935114 20.58914,0 18.1397001,0 C15.690369,0 13.3150459,0.47935114 11.0794797,1.42458118 C8.91955169,2.33776031 6.97936581,3.64543717 5.31304249,5.31121498 C3.64650183,6.97710144 2.33837336,8.91645272 1.42506343,11.0753799 C0.479476845,13.3097081 0,15.6841911 0,18.1326629 C0,20.5815692 0.479476845,22.9562695 1.42495476,25.1910324 C2.33826469,27.3500681 3.64639315,29.2895281 5.31271647,30.9554145 C6.97882243,32.621301 8.91889964,33.9290865 11.078719,34.8422656 C13.3141765,35.7876043 15.6896082,36.2668468 18.1389394,36.2668468 C22.1673274,36.2668468 25.9927093,34.9575402 29.2014657,32.4804943 L30.0892369,31.7950395 L43.9457047,45.6480919 C44.1729454,45.8750558 44.4751723,46 44.7967435,46 C45.118532,46 45.4207589,45.8749472 45.647565,45.6479833 C45.8748057,45.4208021 46,45.1186545 46,44.7972763 C46,44.4757894 45.8748057,44.1736417 45.647565,43.9464606" id="Fill-1" fill="#000000" mask="url(#mask-2)"></path>
                </g>
            </g>
        </g>
    </g>
</svg>